<?xml version="1.0" encoding="utf-8"?>
<svg width="422" height="787" viewBox="0 0 422 787" xmlns="http://www.w3.org/2000/svg">

<!-- Association IS REFERRED TO -->
<g class="page_0_Zm8aKNLt diagram_page" visibility="visible">
	<line x1="174" y1="516" x2="174" y2="347" stroke="#5aae61" stroke-width="2"/>
	<text x="179" y="389" fill="#762a83" font-family="Verdana" font-size="12">1,1</text>
	<line x1="174" y1="153" x2="174" y2="347" stroke="#5aae61" stroke-width="2"/>
	<text x="179" y="314" fill="#762a83" font-family="Verdana" font-size="12">0,N</text>
	<g>
		<path d="M219 322 a14 14 90 0 1 14 14 V347 h-118 V336 a14 14 90 0 1 14 -14" fill="#a6dba0" stroke="#a6dba0" stroke-width="0"/>
		<path d="M233 347 v11 a14 14 90 0 1 -14 14 H129 a14 14 90 0 1 -14 -14 V347 H118" fill="#d9f0d3" stroke="#d9f0d3" stroke-width="0"/>
		<rect x="115" y="322" width="118" height="50" fill="none" rx="14" stroke="#5aae61" stroke-width="2"/>
		<line x1="115" y1="347" x2="233" y2="347" stroke="#5aae61" stroke-width="1"/>
		<text x="122" y="339.75" fill="#000" font-family="Verdana" font-size="12">IS REFERRED TO</text>
	</g>
</g>

<!-- Association POSSESS -->
<g class="page_0_Zm8aKNLt diagram_page" visibility="visible">
	<line x1="174" y1="516" x2="51" y2="516" stroke="#5aae61" stroke-width="2"/>
	<text x="92" y="533" fill="#762a83" font-family="Verdana" font-size="12">0,N</text>
	<line x1="51" y1="719" x2="51" y2="516" stroke="#5aae61" stroke-width="2"/>
	<text x="56" y="652" fill="#762a83" font-family="Verdana" font-size="12">1,1</text>
	<g>
		<path d="M73 491 a14 14 90 0 1 14 14 V516 h-72 V505 a14 14 90 0 1 14 -14" fill="#a6dba0" stroke="#a6dba0" stroke-width="0"/>
		<path d="M87 516 v11 a14 14 90 0 1 -14 14 H29 a14 14 90 0 1 -14 -14 V516 H72" fill="#d9f0d3" stroke="#d9f0d3" stroke-width="0"/>
		<rect x="15" y="491" width="72" height="50" fill="none" rx="14" stroke="#5aae61" stroke-width="2"/>
		<line x1="15" y1="516" x2="87" y2="516" stroke="#5aae61" stroke-width="1"/>
		<text x="22" y="508.75" fill="#000" font-family="Verdana" font-size="12">POSSESS</text>
	</g>
</g>

<!-- Association ARE REPRESENTED BY -->
<g class="page_0_Zm8aKNLt diagram_page" visibility="visible">
	<line x1="174" y1="516" x2="337" y2="516" stroke="#5aae61" stroke-width="2"/>
	<text x="234" y="533" fill="#762a83" font-family="Verdana" font-size="12">1,1</text>
	<line x1="337" y1="719" x2="337" y2="516" stroke="#5aae61" stroke-width="2"/>
	<text x="342" y="660" fill="#762a83" font-family="Verdana" font-size="12">0,N</text>
	<g>
		<path d="M399 491 a14 14 90 0 1 14 14 V516 h-152 V505 a14 14 90 0 1 14 -14" fill="#a6dba0" stroke="#a6dba0" stroke-width="0"/>
		<path d="M413 516 v11 a14 14 90 0 1 -14 14 H275 a14 14 90 0 1 -14 -14 V516 H152" fill="#d9f0d3" stroke="#d9f0d3" stroke-width="0"/>
		<rect x="261" y="491" width="152" height="50" fill="none" rx="14" stroke="#5aae61" stroke-width="2"/>
		<line x1="261" y1="516" x2="413" y2="516" stroke="#5aae61" stroke-width="1"/>
		<text x="269" y="508.75" fill="#000" font-family="Verdana" font-size="12">ARE REPRESENTED BY</text>
	</g>
</g>

<!-- Association RELATED TO -->
<g class="page_0_Zm8aKNLt diagram_page" visibility="visible">
	<line x1="337" y1="719" x2="174" y2="719" stroke="#5aae61" stroke-width="2"/>
	<text x="273" y="736" fill="#762a83" font-family="Verdana" font-size="12">0,N</text>
	<line x1="51" y1="719" x2="174" y2="719" stroke="#5aae61" stroke-width="2"/>
	<text x="98" y="736" fill="#762a83" font-family="Verdana" font-size="12">1,1</text>
	<g>
		<path d="M206 694 a14 14 90 0 1 14 14 V719 h-92 V708 a14 14 90 0 1 14 -14" fill="#a6dba0" stroke="#a6dba0" stroke-width="0"/>
		<path d="M220 719 v11 a14 14 90 0 1 -14 14 H142 a14 14 90 0 1 -14 -14 V719 H92" fill="#d9f0d3" stroke="#d9f0d3" stroke-width="0"/>
		<rect x="128" y="694" width="92" height="50" fill="none" rx="14" stroke="#5aae61" stroke-width="2"/>
		<line x1="128" y1="719" x2="220" y2="719" stroke="#5aae61" stroke-width="1"/>
		<text x="136" y="711.75" fill="#000" font-family="Verdana" font-size="12">RELATED TO</text>
	</g>
</g>

<!-- Entity PEERS -->
<g class="page_0_Zm8aKNLt diagram_page" visibility="visible">
	<g>
		<rect x="132" y="9" width="84" height="25" fill="#c2a5cf" stroke="#c2a5cf" stroke-width="0" opacity="1"/>
		<rect x="132" y="34" width="84" height="263" fill="#e7d4e8" stroke="#e7d4e8" stroke-width="0" opacity="1"/>
		<rect x="132" y="9" width="84" height="288" fill="none" stroke="#9970ab" stroke-width="2" opacity="1"/>
		<line x1="132" y1="34" x2="216" y2="34" stroke="#9970ab" stroke-width="1"/>
	</g>
	<text x="154" y="26.75" fill="#000" font-family="Verdana" font-size="12">PEERS</text>
	<text x="137" y="51.8" fill="#000" font-family="Verdana" font-size="12">id</text>
	<line x1="137" y1="54" x2="149" y2="54" stroke="#000" stroke-width="1"/>
	<text x="137" y="68.8" fill="#000" font-family="Verdana" font-size="12">torrent</text>
	<text x="137" y="85.8" fill="#000" font-family="Verdana" font-size="12">peer_id</text>
	<text x="137" y="102.8" fill="#000" font-family="Verdana" font-size="12">ip</text>
	<text x="137" y="119.8" fill="#000" font-family="Verdana" font-size="12">port</text>
	<text x="137" y="136.8" fill="#000" font-family="Verdana" font-size="12">uploaded</text>
	<text x="137" y="153.8" fill="#000" font-family="Verdana" font-size="12">downloaded</text>
	<text x="137" y="170.8" fill="#000" font-family="Verdana" font-size="12">left</text>
	<text x="137" y="187.8" fill="#000" font-family="Verdana" font-size="12">event</text>
	<text x="137" y="204.8" fill="#000" font-family="Verdana" font-size="12">tracker_id</text>
	<text x="137" y="221.8" fill="#000" font-family="Verdana" font-size="12">compact</text>
	<text x="137" y="238.8" fill="#000" font-family="Verdana" font-size="12">key</text>
	<text x="137" y="255.8" fill="#000" font-family="Verdana" font-size="12">corrupt</text>
	<text x="137" y="272.8" fill="#000" font-family="Verdana" font-size="12">no_peer_id</text>
	<text x="137" y="289.8" fill="#000" font-family="Verdana" font-size="12">user_agent</text>
</g>

<!-- Entity TORRENTS -->
<g class="page_0_Zm8aKNLt diagram_page" visibility="visible">
	<g>
		<rect x="119" y="397" width="110" height="25" fill="#c2a5cf" stroke="#c2a5cf" stroke-width="0" opacity="1"/>
		<rect x="119" y="422" width="110" height="213" fill="#e7d4e8" stroke="#e7d4e8" stroke-width="0" opacity="1"/>
		<rect x="119" y="397" width="110" height="238" fill="none" stroke="#9970ab" stroke-width="2" opacity="1"/>
		<line x1="119" y1="422" x2="229" y2="422" stroke="#9970ab" stroke-width="1"/>
	</g>
	<text x="141" y="414.75" fill="#000" font-family="Verdana" font-size="12">TORRENTS</text>
	<text x="124" y="439.8" fill="#000" font-family="Verdana" font-size="12">id</text>
	<line x1="124" y1="442" x2="136" y2="442" stroke="#000" stroke-width="1"/>
	<text x="124" y="456.8" fill="#000" font-family="Verdana" font-size="12">uploader</text>
	<text x="124" y="473.8" fill="#000" font-family="Verdana" font-size="12">info_hash</text>
	<text x="124" y="490.8" fill="#000" font-family="Verdana" font-size="12">name</text>
	<text x="124" y="507.8" fill="#000" font-family="Verdana" font-size="12">desc</text>
	<text x="124" y="524.8" fill="#000" font-family="Verdana" font-size="12">torrent_file</text>
	<text x="124" y="541.8" fill="#000" font-family="Verdana" font-size="12">torrent_version</text>
	<text x="124" y="558.8" fill="#000" font-family="Verdana" font-size="12">uploaded_time</text>
	<text x="124" y="575.8" fill="#000" font-family="Verdana" font-size="12">download_count</text>
	<text x="124" y="592.8" fill="#000" font-family="Verdana" font-size="12">seeders</text>
	<text x="124" y="609.8" fill="#000" font-family="Verdana" font-size="12">leechers</text>
	<text x="124" y="626.8" fill="#000" font-family="Verdana" font-size="12">last_checked</text>
</g>

<!-- Entity USERS -->
<g class="page_0_Zm8aKNLt diagram_page" visibility="visible">
	<g>
		<rect x="9" y="660" width="84" height="25" fill="#c2a5cf" stroke="#c2a5cf" stroke-width="0" opacity="1"/>
		<rect x="9" y="685" width="84" height="93" fill="#e7d4e8" stroke="#e7d4e8" stroke-width="0" opacity="1"/>
		<rect x="9" y="660" width="84" height="118" fill="none" stroke="#9970ab" stroke-width="2" opacity="1"/>
		<line x1="9" y1="685" x2="93" y2="685" stroke="#9970ab" stroke-width="1"/>
	</g>
	<text x="30" y="677.75" fill="#000" font-family="Verdana" font-size="12">USERS</text>
	<text x="14" y="702.8" fill="#000" font-family="Verdana" font-size="12">id</text>
	<line x1="14" y1="705" x2="26" y2="705" stroke="#000" stroke-width="1"/>
	<text x="14" y="719.8" fill="#000" font-family="Verdana" font-size="12">username</text>
	<text x="14" y="736.8" fill="#000" font-family="Verdana" font-size="12">password</text>
	<text x="14" y="753.8" fill="#000" font-family="Verdana" font-size="12">uploaded</text>
	<text x="14" y="770.8" fill="#000" font-family="Verdana" font-size="12">downloaded</text>
</g>

<!-- Entity PASSKEYS -->
<g class="page_0_Zm8aKNLt diagram_page" visibility="visible">
	<g>
		<rect x="300" y="668" width="74" height="25" fill="#c2a5cf" stroke="#c2a5cf" stroke-width="0" opacity="1"/>
		<rect x="300" y="693" width="74" height="77" fill="#e7d4e8" stroke="#e7d4e8" stroke-width="0" opacity="1"/>
		<rect x="300" y="668" width="74" height="102" fill="none" stroke="#9970ab" stroke-width="2" opacity="1"/>
		<line x1="300" y1="693" x2="374" y2="693" stroke="#9970ab" stroke-width="1"/>
	</g>
	<text x="305" y="685.75" fill="#000" font-family="Verdana" font-size="12">PASSKEYS</text>
	<text x="305" y="710.8" fill="#000" font-family="Verdana" font-size="12">id</text>
	<line x1="305" y1="713" x2="317" y2="713" stroke="#000" stroke-width="1"/>
	<text x="305" y="727.8" fill="#000" font-family="Verdana" font-size="12">passkey</text>
	<text x="305" y="744.8" fill="#000" font-family="Verdana" font-size="12">torrent</text>
	<text x="305" y="761.8" fill="#000" font-family="Verdana" font-size="12">user</text>
</g>
</svg>