<?xml version="1.0" encoding="utf-8"?>
<svg width="422" height="753" viewBox="0 0 422 753" xmlns="http://www.w3.org/2000/svg">

<!-- Association EST RÉFÉRENCÉ -->
<g class="page_0_0gLJVS1K diagram_page" visibility="visible">
	<line x1="186" y1="516" x2="186" y2="347" stroke="#4393c3" stroke-width="2"/>
	<text x="191" y="389" fill="#b2182b" font-family="Verdana" font-size="12">1,1</text>
	<line x1="186" y1="153" x2="186" y2="347" stroke="#4393c3" stroke-width="2"/>
	<text x="191" y="314" fill="#b2182b" font-family="Verdana" font-size="12">0,N</text>
	<g>
		<path d="M229 322 a14 14 90 0 1 14 14 V347 h-114 V336 a14 14 90 0 1 14 -14" fill="#92c5de" stroke="#92c5de" stroke-width="0"/>
		<path d="M243 347 v11 a14 14 90 0 1 -14 14 H143 a14 14 90 0 1 -14 -14 V347 H114" fill="#d1e5f0" stroke="#d1e5f0" stroke-width="0"/>
		<rect x="129" y="322" width="114" height="50" fill="none" rx="14" stroke="#4393c3" stroke-width="2"/>
		<line x1="129" y1="347" x2="243" y2="347" stroke="#4393c3" stroke-width="1"/>
		<text x="136" y="339.75" fill="#000" font-family="Verdana" font-size="12">EST RÉFÉRENCÉ</text>
	</g>
</g>

<!-- Association POSSÈDENT -->
<g class="page_0_0gLJVS1K diagram_page" visibility="visible">
	<line x1="186" y1="516" x2="54" y2="516" stroke="#4393c3" stroke-width="2"/>
	<text x="104" y="533" fill="#b2182b" font-family="Verdana" font-size="12">0,N</text>
	<line x1="54" y1="685" x2="54" y2="516" stroke="#4393c3" stroke-width="2"/>
	<text x="59" y="618" fill="#b2182b" font-family="Verdana" font-size="12">1,1</text>
	<g>
		<path d="M85 491 a14 14 90 0 1 14 14 V516 h-90 V505 a14 14 90 0 1 14 -14" fill="#92c5de" stroke="#92c5de" stroke-width="0"/>
		<path d="M99 516 v11 a14 14 90 0 1 -14 14 H23 a14 14 90 0 1 -14 -14 V516 H90" fill="#d1e5f0" stroke="#d1e5f0" stroke-width="0"/>
		<rect x="9" y="491" width="90" height="50" fill="none" rx="14" stroke="#4393c3" stroke-width="2"/>
		<line x1="9" y1="516" x2="99" y2="516" stroke="#4393c3" stroke-width="1"/>
		<text x="17" y="508.75" fill="#000" font-family="Verdana" font-size="12">POSSÈDENT</text>
	</g>
</g>

<!-- Association SONT REPRÉSENTÉS -->
<g class="page_0_0gLJVS1K diagram_page" visibility="visible">
	<line x1="186" y1="516" x2="343" y2="516" stroke="#4393c3" stroke-width="2"/>
	<text x="246" y="533" fill="#b2182b" font-family="Verdana" font-size="12">1,1</text>
	<line x1="343" y1="685" x2="343" y2="516" stroke="#4393c3" stroke-width="2"/>
	<text x="348" y="626" fill="#b2182b" font-family="Verdana" font-size="12">0,N</text>
	<g>
		<path d="M399 491 a14 14 90 0 1 14 14 V516 h-140 V505 a14 14 90 0 1 14 -14" fill="#92c5de" stroke="#92c5de" stroke-width="0"/>
		<path d="M413 516 v11 a14 14 90 0 1 -14 14 H287 a14 14 90 0 1 -14 -14 V516 H140" fill="#d1e5f0" stroke="#d1e5f0" stroke-width="0"/>
		<rect x="273" y="491" width="140" height="50" fill="none" rx="14" stroke="#4393c3" stroke-width="2"/>
		<line x1="273" y1="516" x2="413" y2="516" stroke="#4393c3" stroke-width="1"/>
		<text x="280" y="508.75" fill="#000" font-family="Verdana" font-size="12">SONT REPRÉSENTÉS</text>
	</g>
</g>

<!-- Association LIÉS À -->
<g class="page_0_0gLJVS1K diagram_page" visibility="visible">
	<line x1="343" y1="685" x2="186" y2="685" stroke="#4393c3" stroke-width="2"/>
	<text x="279" y="702" fill="#b2182b" font-family="Verdana" font-size="12">0,N</text>
	<line x1="54" y1="685" x2="186" y2="685" stroke="#4393c3" stroke-width="2"/>
	<text x="101" y="702" fill="#b2182b" font-family="Verdana" font-size="12">1,1</text>
	<g>
		<path d="M200 660 a14 14 90 0 1 14 14 V685 h-56 V674 a14 14 90 0 1 14 -14" fill="#92c5de" stroke="#92c5de" stroke-width="0"/>
		<path d="M214 685 v11 a14 14 90 0 1 -14 14 H172 a14 14 90 0 1 -14 -14 V685 H56" fill="#d1e5f0" stroke="#d1e5f0" stroke-width="0"/>
		<rect x="158" y="660" width="56" height="50" fill="none" rx="14" stroke="#4393c3" stroke-width="2"/>
		<line x1="158" y1="685" x2="214" y2="685" stroke="#4393c3" stroke-width="1"/>
		<text x="166" y="677.75" fill="#000" font-family="Verdana" font-size="12">LIÉS À</text>
	</g>
</g>

<!-- Entity PEERS -->
<g class="page_0_0gLJVS1K diagram_page" visibility="visible">
	<g>
		<rect x="144" y="9" width="84" height="25" fill="#f4a582" stroke="#f4a582" stroke-width="0" opacity="1"/>
		<rect x="144" y="34" width="84" height="263" fill="#fddbc7" stroke="#fddbc7" stroke-width="0" opacity="1"/>
		<rect x="144" y="9" width="84" height="288" fill="none" stroke="#d6604d" stroke-width="2" opacity="1"/>
		<line x1="144" y1="34" x2="228" y2="34" stroke="#d6604d" stroke-width="1"/>
	</g>
	<text x="166" y="26.75" fill="#000" font-family="Verdana" font-size="12">PEERS</text>
	<text x="149" y="51.8" fill="#000" font-family="Verdana" font-size="12">id</text>
	<line x1="149" y1="54" x2="161" y2="54" stroke="#000" stroke-width="1"/>
	<text x="149" y="68.8" fill="#000" font-family="Verdana" font-size="12">torrent</text>
	<text x="149" y="85.8" fill="#000" font-family="Verdana" font-size="12">peer_id</text>
	<text x="149" y="102.8" fill="#000" font-family="Verdana" font-size="12">ip</text>
	<text x="149" y="119.8" fill="#000" font-family="Verdana" font-size="12">port</text>
	<text x="149" y="136.8" fill="#000" font-family="Verdana" font-size="12">uploaded</text>
	<text x="149" y="153.8" fill="#000" font-family="Verdana" font-size="12">downloaded</text>
	<text x="149" y="170.8" fill="#000" font-family="Verdana" font-size="12">left</text>
	<text x="149" y="187.8" fill="#000" font-family="Verdana" font-size="12">event</text>
	<text x="149" y="204.8" fill="#000" font-family="Verdana" font-size="12">tracker_id</text>
	<text x="149" y="221.8" fill="#000" font-family="Verdana" font-size="12">compact</text>
	<text x="149" y="238.8" fill="#000" font-family="Verdana" font-size="12">key</text>
	<text x="149" y="255.8" fill="#000" font-family="Verdana" font-size="12">corrupt</text>
	<text x="149" y="272.8" fill="#000" font-family="Verdana" font-size="12">no_peer_id</text>
	<text x="149" y="289.8" fill="#000" font-family="Verdana" font-size="12">user_agent</text>
</g>

<!-- Entity TORRENTS -->
<g class="page_0_0gLJVS1K diagram_page" visibility="visible">
	<g>
		<rect x="131" y="397" width="110" height="25" fill="#f4a582" stroke="#f4a582" stroke-width="0" opacity="1"/>
		<rect x="131" y="422" width="110" height="213" fill="#fddbc7" stroke="#fddbc7" stroke-width="0" opacity="1"/>
		<rect x="131" y="397" width="110" height="238" fill="none" stroke="#d6604d" stroke-width="2" opacity="1"/>
		<line x1="131" y1="422" x2="241" y2="422" stroke="#d6604d" stroke-width="1"/>
	</g>
	<text x="153" y="414.75" fill="#000" font-family="Verdana" font-size="12">TORRENTS</text>
	<text x="136" y="439.8" fill="#000" font-family="Verdana" font-size="12">id</text>
	<line x1="136" y1="442" x2="148" y2="442" stroke="#000" stroke-width="1"/>
	<text x="136" y="456.8" fill="#000" font-family="Verdana" font-size="12">uploader</text>
	<text x="136" y="473.8" fill="#000" font-family="Verdana" font-size="12">info_hash</text>
	<text x="136" y="490.8" fill="#000" font-family="Verdana" font-size="12">name</text>
	<text x="136" y="507.8" fill="#000" font-family="Verdana" font-size="12">desc</text>
	<text x="136" y="524.8" fill="#000" font-family="Verdana" font-size="12">torrent_file</text>
	<text x="136" y="541.8" fill="#000" font-family="Verdana" font-size="12">torrent_version</text>
	<text x="136" y="558.8" fill="#000" font-family="Verdana" font-size="12">uploaded_time</text>
	<text x="136" y="575.8" fill="#000" font-family="Verdana" font-size="12">download_count</text>
	<text x="136" y="592.8" fill="#000" font-family="Verdana" font-size="12">seeders</text>
	<text x="136" y="609.8" fill="#000" font-family="Verdana" font-size="12">leechers</text>
	<text x="136" y="626.8" fill="#000" font-family="Verdana" font-size="12">last_checked</text>
</g>

<!-- Entity USERS -->
<g class="page_0_0gLJVS1K diagram_page" visibility="visible">
	<g>
		<rect x="12" y="626" width="84" height="25" fill="#f4a582" stroke="#f4a582" stroke-width="0" opacity="1"/>
		<rect x="12" y="651" width="84" height="93" fill="#fddbc7" stroke="#fddbc7" stroke-width="0" opacity="1"/>
		<rect x="12" y="626" width="84" height="118" fill="none" stroke="#d6604d" stroke-width="2" opacity="1"/>
		<line x1="12" y1="651" x2="96" y2="651" stroke="#d6604d" stroke-width="1"/>
	</g>
	<text x="33" y="643.75" fill="#000" font-family="Verdana" font-size="12">USERS</text>
	<text x="17" y="668.8" fill="#000" font-family="Verdana" font-size="12">id</text>
	<line x1="17" y1="671" x2="29" y2="671" stroke="#000" stroke-width="1"/>
	<text x="17" y="685.8" fill="#000" font-family="Verdana" font-size="12">username</text>
	<text x="17" y="702.8" fill="#000" font-family="Verdana" font-size="12">password</text>
	<text x="17" y="719.8" fill="#000" font-family="Verdana" font-size="12">uploaded</text>
	<text x="17" y="736.8" fill="#000" font-family="Verdana" font-size="12">downloaded</text>
</g>

<!-- Entity PASSKEYS -->
<g class="page_0_0gLJVS1K diagram_page" visibility="visible">
	<g>
		<rect x="306" y="634" width="74" height="25" fill="#f4a582" stroke="#f4a582" stroke-width="0" opacity="1"/>
		<rect x="306" y="659" width="74" height="77" fill="#fddbc7" stroke="#fddbc7" stroke-width="0" opacity="1"/>
		<rect x="306" y="634" width="74" height="102" fill="none" stroke="#d6604d" stroke-width="2" opacity="1"/>
		<line x1="306" y1="659" x2="380" y2="659" stroke="#d6604d" stroke-width="1"/>
	</g>
	<text x="311" y="651.75" fill="#000" font-family="Verdana" font-size="12">PASSKEYS</text>
	<text x="311" y="676.8" fill="#000" font-family="Verdana" font-size="12">id</text>
	<line x1="311" y1="679" x2="323" y2="679" stroke="#000" stroke-width="1"/>
	<text x="311" y="693.8" fill="#000" font-family="Verdana" font-size="12">passkey</text>
	<text x="311" y="710.8" fill="#000" font-family="Verdana" font-size="12">torrent</text>
	<text x="311" y="727.8" fill="#000" font-family="Verdana" font-size="12">user</text>
</g>
</svg>