<?xml version="1.0" encoding="utf-8"?>
<svg width="422" height="769" viewBox="0 0 422 769" xmlns="http://www.w3.org/2000/svg">

<!-- Association IS REFERRED TO -->
<g class="page_0_Hvv67p9T diagram_page" visibility="visible">
	<line x1="174" y1="507" x2="174" y2="347" stroke="#4393c3" stroke-width="2"/>
	<text x="179" y="389" fill="#b2182b" font-family="Verdana" font-size="12">1,1</text>
	<line x1="174" y1="153" x2="174" y2="347" stroke="#4393c3" stroke-width="2"/>
	<text x="179" y="314" fill="#b2182b" font-family="Verdana" font-size="12">0,N</text>
	<g>
		<path d="M219 322 a14 14 90 0 1 14 14 V347 h-118 V336 a14 14 90 0 1 14 -14" fill="#92c5de" stroke="#92c5de" stroke-width="0"/>
		<path d="M233 347 v11 a14 14 90 0 1 -14 14 H129 a14 14 90 0 1 -14 -14 V347 H118" fill="#d1e5f0" stroke="#d1e5f0" stroke-width="0"/>
		<rect x="115" y="322" width="118" height="50" fill="none" rx="14" stroke="#4393c3" stroke-width="2"/>
		<line x1="115" y1="347" x2="233" y2="347" stroke="#4393c3" stroke-width="1"/>
		<text x="122" y="339.75" fill="#000" font-family="Verdana" font-size="12">IS REFERRED TO</text>
	</g>
</g>

<!-- Association POSSESS -->
<g class="page_0_Hvv67p9T diagram_page" visibility="visible">
	<line x1="174" y1="507" x2="51" y2="507" stroke="#4393c3" stroke-width="2"/>
	<text x="92" y="524" fill="#b2182b" font-family="Verdana" font-size="12">0,N</text>
	<line x1="51" y1="701" x2="51" y2="507" stroke="#4393c3" stroke-width="2"/>
	<text x="56" y="634" fill="#b2182b" font-family="Verdana" font-size="12">1,1</text>
	<g>
		<path d="M73 482 a14 14 90 0 1 14 14 V507 h-72 V496 a14 14 90 0 1 14 -14" fill="#92c5de" stroke="#92c5de" stroke-width="0"/>
		<path d="M87 507 v11 a14 14 90 0 1 -14 14 H29 a14 14 90 0 1 -14 -14 V507 H72" fill="#d1e5f0" stroke="#d1e5f0" stroke-width="0"/>
		<rect x="15" y="482" width="72" height="50" fill="none" rx="14" stroke="#4393c3" stroke-width="2"/>
		<line x1="15" y1="507" x2="87" y2="507" stroke="#4393c3" stroke-width="1"/>
		<text x="22" y="499.75" fill="#000" font-family="Verdana" font-size="12">POSSESS</text>
	</g>
</g>

<!-- Association ARE REPRESENTED BY -->
<g class="page_0_Hvv67p9T diagram_page" visibility="visible">
	<line x1="174" y1="507" x2="337" y2="507" stroke="#4393c3" stroke-width="2"/>
	<text x="234" y="524" fill="#b2182b" font-family="Verdana" font-size="12">1,1</text>
	<line x1="337" y1="701" x2="337" y2="507" stroke="#4393c3" stroke-width="2"/>
	<text x="342" y="642" fill="#b2182b" font-family="Verdana" font-size="12">0,N</text>
	<g>
		<path d="M399 482 a14 14 90 0 1 14 14 V507 h-152 V496 a14 14 90 0 1 14 -14" fill="#92c5de" stroke="#92c5de" stroke-width="0"/>
		<path d="M413 507 v11 a14 14 90 0 1 -14 14 H275 a14 14 90 0 1 -14 -14 V507 H152" fill="#d1e5f0" stroke="#d1e5f0" stroke-width="0"/>
		<rect x="261" y="482" width="152" height="50" fill="none" rx="14" stroke="#4393c3" stroke-width="2"/>
		<line x1="261" y1="507" x2="413" y2="507" stroke="#4393c3" stroke-width="1"/>
		<text x="269" y="499.75" fill="#000" font-family="Verdana" font-size="12">ARE REPRESENTED BY</text>
	</g>
</g>

<!-- Association RELATED TO -->
<g class="page_0_Hvv67p9T diagram_page" visibility="visible">
	<line x1="337" y1="701" x2="174" y2="701" stroke="#4393c3" stroke-width="2"/>
	<text x="273" y="718" fill="#b2182b" font-family="Verdana" font-size="12">0,N</text>
	<line x1="51" y1="701" x2="174" y2="701" stroke="#4393c3" stroke-width="2"/>
	<text x="98" y="718" fill="#b2182b" font-family="Verdana" font-size="12">1,1</text>
	<g>
		<path d="M206 676 a14 14 90 0 1 14 14 V701 h-92 V690 a14 14 90 0 1 14 -14" fill="#92c5de" stroke="#92c5de" stroke-width="0"/>
		<path d="M220 701 v11 a14 14 90 0 1 -14 14 H142 a14 14 90 0 1 -14 -14 V701 H92" fill="#d1e5f0" stroke="#d1e5f0" stroke-width="0"/>
		<rect x="128" y="676" width="92" height="50" fill="none" rx="14" stroke="#4393c3" stroke-width="2"/>
		<line x1="128" y1="701" x2="220" y2="701" stroke="#4393c3" stroke-width="1"/>
		<text x="136" y="693.75" fill="#000" font-family="Verdana" font-size="12">RELATED TO</text>
	</g>
</g>

<!-- Entity PEERS -->
<g class="page_0_Hvv67p9T diagram_page" visibility="visible">
	<g>
		<rect x="132" y="9" width="84" height="25" fill="#f4a582" stroke="#f4a582" stroke-width="0" opacity="1"/>
		<rect x="132" y="34" width="84" height="263" fill="#fddbc7" stroke="#fddbc7" stroke-width="0" opacity="1"/>
		<rect x="132" y="9" width="84" height="288" fill="none" stroke="#d6604d" stroke-width="2" opacity="1"/>
		<line x1="132" y1="34" x2="216" y2="34" stroke="#d6604d" stroke-width="1"/>
	</g>
	<text x="154" y="26.75" fill="#000" font-family="Verdana" font-size="12">PEERS</text>
	<text x="137" y="51.8" fill="#000" font-family="Verdana" font-size="12">id</text>
	<line x1="137" y1="54" x2="149" y2="54" stroke="#000" stroke-width="1"/>
	<text x="137" y="68.8" fill="#000" font-family="Verdana" font-size="12">torrent</text>
	<text x="137" y="85.8" fill="#000" font-family="Verdana" font-size="12">peer_id</text>
	<text x="137" y="102.8" fill="#000" font-family="Verdana" font-size="12">ip</text>
	<text x="137" y="119.8" fill="#000" font-family="Verdana" font-size="12">port</text>
	<text x="137" y="136.8" fill="#000" font-family="Verdana" font-size="12">uploaded</text>
	<text x="137" y="153.8" fill="#000" font-family="Verdana" font-size="12">downloaded</text>
	<text x="137" y="170.8" fill="#000" font-family="Verdana" font-size="12">left</text>
	<text x="137" y="187.8" fill="#000" font-family="Verdana" font-size="12">event</text>
	<text x="137" y="204.8" fill="#000" font-family="Verdana" font-size="12">tracker_id</text>
	<text x="137" y="221.8" fill="#000" font-family="Verdana" font-size="12">compact</text>
	<text x="137" y="238.8" fill="#000" font-family="Verdana" font-size="12">key</text>
	<text x="137" y="255.8" fill="#000" font-family="Verdana" font-size="12">corrupt</text>
	<text x="137" y="272.8" fill="#000" font-family="Verdana" font-size="12">no_peer_id</text>
	<text x="137" y="289.8" fill="#000" font-family="Verdana" font-size="12">user_agent</text>
</g>

<!-- Entity TORRENTS -->
<g class="page_0_Hvv67p9T diagram_page" visibility="visible">
	<g>
		<rect x="119" y="397" width="110" height="25" fill="#f4a582" stroke="#f4a582" stroke-width="0" opacity="1"/>
		<rect x="119" y="422" width="110" height="195" fill="#fddbc7" stroke="#fddbc7" stroke-width="0" opacity="1"/>
		<rect x="119" y="397" width="110" height="220" fill="none" stroke="#d6604d" stroke-width="2" opacity="1"/>
		<line x1="119" y1="422" x2="229" y2="422" stroke="#d6604d" stroke-width="1"/>
	</g>
	<text x="141" y="414.75" fill="#000" font-family="Verdana" font-size="12">TORRENTS</text>
	<text x="124" y="439.8" fill="#000" font-family="Verdana" font-size="12">id</text>
	<line x1="124" y1="442" x2="136" y2="442" stroke="#000" stroke-width="1"/>
	<text x="124" y="456.8" fill="#000" font-family="Verdana" font-size="12">info_hash</text>
	<text x="124" y="473.8" fill="#000" font-family="Verdana" font-size="12">name</text>
	<text x="124" y="490.8" fill="#000" font-family="Verdana" font-size="12">desc</text>
	<text x="124" y="507.8" fill="#000" font-family="Verdana" font-size="12">torrent_file</text>
	<text x="124" y="524.8" fill="#000" font-family="Verdana" font-size="12">torrent_version</text>
	<text x="124" y="541.8" fill="#000" font-family="Verdana" font-size="12">uploaded_time</text>
	<text x="124" y="558.8" fill="#000" font-family="Verdana" font-size="12">download_count</text>
	<text x="124" y="575.8" fill="#000" font-family="Verdana" font-size="12">seeders</text>
	<text x="124" y="592.8" fill="#000" font-family="Verdana" font-size="12">leechers</text>
	<text x="124" y="609.8" fill="#000" font-family="Verdana" font-size="12">last_checked</text>
</g>

<!-- Entity USERS -->
<g class="page_0_Hvv67p9T diagram_page" visibility="visible">
	<g>
		<rect x="9" y="642" width="84" height="25" fill="#f4a582" stroke="#f4a582" stroke-width="0" opacity="1"/>
		<rect x="9" y="667" width="84" height="93" fill="#fddbc7" stroke="#fddbc7" stroke-width="0" opacity="1"/>
		<rect x="9" y="642" width="84" height="118" fill="none" stroke="#d6604d" stroke-width="2" opacity="1"/>
		<line x1="9" y1="667" x2="93" y2="667" stroke="#d6604d" stroke-width="1"/>
	</g>
	<text x="30" y="659.75" fill="#000" font-family="Verdana" font-size="12">USERS</text>
	<text x="14" y="684.8" fill="#000" font-family="Verdana" font-size="12">id</text>
	<line x1="14" y1="687" x2="26" y2="687" stroke="#000" stroke-width="1"/>
	<text x="14" y="701.8" fill="#000" font-family="Verdana" font-size="12">username</text>
	<text x="14" y="718.8" fill="#000" font-family="Verdana" font-size="12">password</text>
	<text x="14" y="735.8" fill="#000" font-family="Verdana" font-size="12">uploaded</text>
	<text x="14" y="752.8" fill="#000" font-family="Verdana" font-size="12">downloaded</text>
</g>

<!-- Entity PASSKEYS -->
<g class="page_0_Hvv67p9T diagram_page" visibility="visible">
	<g>
		<rect x="300" y="650" width="74" height="25" fill="#f4a582" stroke="#f4a582" stroke-width="0" opacity="1"/>
		<rect x="300" y="675" width="74" height="77" fill="#fddbc7" stroke="#fddbc7" stroke-width="0" opacity="1"/>
		<rect x="300" y="650" width="74" height="102" fill="none" stroke="#d6604d" stroke-width="2" opacity="1"/>
		<line x1="300" y1="675" x2="374" y2="675" stroke="#d6604d" stroke-width="1"/>
	</g>
	<text x="305" y="667.75" fill="#000" font-family="Verdana" font-size="12">PASSKEYS</text>
	<text x="305" y="692.8" fill="#000" font-family="Verdana" font-size="12">id</text>
	<line x1="305" y1="695" x2="317" y2="695" stroke="#000" stroke-width="1"/>
	<text x="305" y="709.8" fill="#000" font-family="Verdana" font-size="12">passkey</text>
	<text x="305" y="726.8" fill="#000" font-family="Verdana" font-size="12">torrent</text>
	<text x="305" y="743.8" fill="#000" font-family="Verdana" font-size="12">user</text>
</g>
</svg>