<?xml version="1.0" encoding="utf-8"?>
<svg width="422" height="719" viewBox="0 0 422 719" xmlns="http://www.w3.org/2000/svg">

<!-- Association IS REFERRED TO -->
<g class="page_0_MMzY2eSy diagram_page" visibility="visible">
	<line x1="174" y1="448" x2="174" y2="279" stroke="#5aae61" stroke-width="2"/>
	<text x="179" y="321" fill="#762a83" font-family="Verdana" font-size="12">1,1</text>
	<line x1="174" y1="119" x2="174" y2="279" stroke="#5aae61" stroke-width="2"/>
	<text x="179" y="246" fill="#762a83" font-family="Verdana" font-size="12">0,N</text>
	<g>
		<path d="M219 254 a14 14 90 0 1 14 14 V279 h-118 V268 a14 14 90 0 1 14 -14" fill="#a6dba0" stroke="#a6dba0" stroke-width="0"/>
		<path d="M233 279 v11 a14 14 90 0 1 -14 14 H129 a14 14 90 0 1 -14 -14 V279 H118" fill="#d9f0d3" stroke="#d9f0d3" stroke-width="0"/>
		<rect x="115" y="254" width="118" height="50" fill="none" rx="14" stroke="#5aae61" stroke-width="2"/>
		<line x1="115" y1="279" x2="233" y2="279" stroke="#5aae61" stroke-width="1"/>
		<text x="122" y="271.75" fill="#000" font-family="Verdana" font-size="12">IS REFERRED TO</text>
	</g>
</g>

<!-- Association POSSESS -->
<g class="page_0_MMzY2eSy diagram_page" visibility="visible">
	<line x1="174" y1="448" x2="51" y2="448" stroke="#5aae61" stroke-width="2"/>
	<text x="92" y="465" fill="#762a83" font-family="Verdana" font-size="12">0,N</text>
	<line x1="51" y1="651" x2="51" y2="448" stroke="#5aae61" stroke-width="2"/>
	<text x="56" y="584" fill="#762a83" font-family="Verdana" font-size="12">1,1</text>
	<g>
		<path d="M73 423 a14 14 90 0 1 14 14 V448 h-72 V437 a14 14 90 0 1 14 -14" fill="#a6dba0" stroke="#a6dba0" stroke-width="0"/>
		<path d="M87 448 v11 a14 14 90 0 1 -14 14 H29 a14 14 90 0 1 -14 -14 V448 H72" fill="#d9f0d3" stroke="#d9f0d3" stroke-width="0"/>
		<rect x="15" y="423" width="72" height="50" fill="none" rx="14" stroke="#5aae61" stroke-width="2"/>
		<line x1="15" y1="448" x2="87" y2="448" stroke="#5aae61" stroke-width="1"/>
		<text x="22" y="440.75" fill="#000" font-family="Verdana" font-size="12">POSSESS</text>
	</g>
</g>

<!-- Association ARE REPRESENTED BY -->
<g class="page_0_MMzY2eSy diagram_page" visibility="visible">
	<line x1="174" y1="448" x2="337" y2="448" stroke="#5aae61" stroke-width="2"/>
	<text x="234" y="465" fill="#762a83" font-family="Verdana" font-size="12">1,1</text>
	<line x1="337" y1="651" x2="337" y2="448" stroke="#5aae61" stroke-width="2"/>
	<text x="342" y="592" fill="#762a83" font-family="Verdana" font-size="12">0,N</text>
	<g>
		<path d="M399 423 a14 14 90 0 1 14 14 V448 h-152 V437 a14 14 90 0 1 14 -14" fill="#a6dba0" stroke="#a6dba0" stroke-width="0"/>
		<path d="M413 448 v11 a14 14 90 0 1 -14 14 H275 a14 14 90 0 1 -14 -14 V448 H152" fill="#d9f0d3" stroke="#d9f0d3" stroke-width="0"/>
		<rect x="261" y="423" width="152" height="50" fill="none" rx="14" stroke="#5aae61" stroke-width="2"/>
		<line x1="261" y1="448" x2="413" y2="448" stroke="#5aae61" stroke-width="1"/>
		<text x="269" y="440.75" fill="#000" font-family="Verdana" font-size="12">ARE REPRESENTED BY</text>
	</g>
</g>

<!-- Association RELATED TO -->
<g class="page_0_MMzY2eSy diagram_page" visibility="visible">
	<line x1="337" y1="651" x2="174" y2="651" stroke="#5aae61" stroke-width="2"/>
	<text x="273" y="668" fill="#762a83" font-family="Verdana" font-size="12">0,N</text>
	<line x1="51" y1="651" x2="174" y2="651" stroke="#5aae61" stroke-width="2"/>
	<text x="98" y="668" fill="#762a83" font-family="Verdana" font-size="12">1,1</text>
	<g>
		<path d="M206 626 a14 14 90 0 1 14 14 V651 h-92 V640 a14 14 90 0 1 14 -14" fill="#a6dba0" stroke="#a6dba0" stroke-width="0"/>
		<path d="M220 651 v11 a14 14 90 0 1 -14 14 H142 a14 14 90 0 1 -14 -14 V651 H92" fill="#d9f0d3" stroke="#d9f0d3" stroke-width="0"/>
		<rect x="128" y="626" width="92" height="50" fill="none" rx="14" stroke="#5aae61" stroke-width="2"/>
		<line x1="128" y1="651" x2="220" y2="651" stroke="#5aae61" stroke-width="1"/>
		<text x="136" y="643.75" fill="#000" font-family="Verdana" font-size="12">RELATED TO</text>
	</g>
</g>

<!-- Entity PEERS -->
<g class="page_0_MMzY2eSy diagram_page" visibility="visible">
	<g>
		<rect x="115" y="9" width="118" height="25" fill="#c2a5cf" stroke="#c2a5cf" stroke-width="0" opacity="1"/>
		<rect x="115" y="34" width="118" height="195" fill="#e7d4e8" stroke="#e7d4e8" stroke-width="0" opacity="1"/>
		<rect x="115" y="9" width="118" height="220" fill="none" stroke="#9970ab" stroke-width="2" opacity="1"/>
		<line x1="115" y1="34" x2="233" y2="34" stroke="#9970ab" stroke-width="1"/>
	</g>
	<text x="154" y="26.75" fill="#000" font-family="Verdana" font-size="12">PEERS</text>
	<text x="120" y="51.8" fill="#000" font-family="Verdana" font-size="12">id</text>
	<line x1="120" y1="54" x2="132" y2="54" stroke="#000" stroke-width="1"/>
	<text x="120" y="68.8" fill="#000" font-family="Verdana" font-size="12">torrent</text>
	<text x="120" y="85.8" fill="#000" font-family="Verdana" font-size="12">peer_id</text>
	<text x="120" y="102.8" fill="#000" font-family="Verdana" font-size="12">ip</text>
	<text x="120" y="119.8" fill="#000" font-family="Verdana" font-size="12">port</text>
	<text x="120" y="136.8" fill="#000" font-family="Verdana" font-size="12">uploaded</text>
	<text x="120" y="153.8" fill="#000" font-family="Verdana" font-size="12">downloaded</text>
	<text x="120" y="170.8" fill="#000" font-family="Verdana" font-size="12">uploaded_total</text>
	<text x="120" y="187.8" fill="#000" font-family="Verdana" font-size="12">downloaded_total</text>
	<text x="120" y="204.8" fill="#000" font-family="Verdana" font-size="12">seeding</text>
	<text x="120" y="221.8" fill="#000" font-family="Verdana" font-size="12">user_agent</text>
</g>

<!-- Entity TORRENTS -->
<g class="page_0_MMzY2eSy diagram_page" visibility="visible">
	<g>
		<rect x="119" y="329" width="110" height="25" fill="#c2a5cf" stroke="#c2a5cf" stroke-width="0" opacity="1"/>
		<rect x="119" y="354" width="110" height="213" fill="#e7d4e8" stroke="#e7d4e8" stroke-width="0" opacity="1"/>
		<rect x="119" y="329" width="110" height="238" fill="none" stroke="#9970ab" stroke-width="2" opacity="1"/>
		<line x1="119" y1="354" x2="229" y2="354" stroke="#9970ab" stroke-width="1"/>
	</g>
	<text x="141" y="346.75" fill="#000" font-family="Verdana" font-size="12">TORRENTS</text>
	<text x="124" y="371.8" fill="#000" font-family="Verdana" font-size="12">id</text>
	<line x1="124" y1="374" x2="136" y2="374" stroke="#000" stroke-width="1"/>
	<text x="124" y="388.8" fill="#000" font-family="Verdana" font-size="12">uploader</text>
	<text x="124" y="405.8" fill="#000" font-family="Verdana" font-size="12">info_hash</text>
	<text x="124" y="422.8" fill="#000" font-family="Verdana" font-size="12">name</text>
	<text x="124" y="439.8" fill="#000" font-family="Verdana" font-size="12">desc</text>
	<text x="124" y="456.8" fill="#000" font-family="Verdana" font-size="12">torrent_file</text>
	<text x="124" y="473.8" fill="#000" font-family="Verdana" font-size="12">torrent_version</text>
	<text x="124" y="490.8" fill="#000" font-family="Verdana" font-size="12">uploaded_time</text>
	<text x="124" y="507.8" fill="#000" font-family="Verdana" font-size="12">download_count</text>
	<text x="124" y="524.8" fill="#000" font-family="Verdana" font-size="12">seeders</text>
	<text x="124" y="541.8" fill="#000" font-family="Verdana" font-size="12">leechers</text>
	<text x="124" y="558.8" fill="#000" font-family="Verdana" font-size="12">last_checked</text>
</g>

<!-- Entity USERS -->
<g class="page_0_MMzY2eSy diagram_page" visibility="visible">
	<g>
		<rect x="9" y="592" width="84" height="25" fill="#c2a5cf" stroke="#c2a5cf" stroke-width="0" opacity="1"/>
		<rect x="9" y="617" width="84" height="93" fill="#e7d4e8" stroke="#e7d4e8" stroke-width="0" opacity="1"/>
		<rect x="9" y="592" width="84" height="118" fill="none" stroke="#9970ab" stroke-width="2" opacity="1"/>
		<line x1="9" y1="617" x2="93" y2="617" stroke="#9970ab" stroke-width="1"/>
	</g>
	<text x="30" y="609.75" fill="#000" font-family="Verdana" font-size="12">USERS</text>
	<text x="14" y="634.8" fill="#000" font-family="Verdana" font-size="12">id</text>
	<line x1="14" y1="637" x2="26" y2="637" stroke="#000" stroke-width="1"/>
	<text x="14" y="651.8" fill="#000" font-family="Verdana" font-size="12">username</text>
	<text x="14" y="668.8" fill="#000" font-family="Verdana" font-size="12">password</text>
	<text x="14" y="685.8" fill="#000" font-family="Verdana" font-size="12">uploaded</text>
	<text x="14" y="702.8" fill="#000" font-family="Verdana" font-size="12">downloaded</text>
</g>

<!-- Entity PASSKEYS -->
<g class="page_0_MMzY2eSy diagram_page" visibility="visible">
	<g>
		<rect x="300" y="600" width="74" height="25" fill="#c2a5cf" stroke="#c2a5cf" stroke-width="0" opacity="1"/>
		<rect x="300" y="625" width="74" height="77" fill="#e7d4e8" stroke="#e7d4e8" stroke-width="0" opacity="1"/>
		<rect x="300" y="600" width="74" height="102" fill="none" stroke="#9970ab" stroke-width="2" opacity="1"/>
		<line x1="300" y1="625" x2="374" y2="625" stroke="#9970ab" stroke-width="1"/>
	</g>
	<text x="305" y="617.75" fill="#000" font-family="Verdana" font-size="12">PASSKEYS</text>
	<text x="305" y="642.8" fill="#000" font-family="Verdana" font-size="12">id</text>
	<line x1="305" y1="645" x2="317" y2="645" stroke="#000" stroke-width="1"/>
	<text x="305" y="659.8" fill="#000" font-family="Verdana" font-size="12">passkey</text>
	<text x="305" y="676.8" fill="#000" font-family="Verdana" font-size="12">torrent</text>
	<text x="305" y="693.8" fill="#000" font-family="Verdana" font-size="12">user</text>
</g>
</svg>